<mxfile host="app.diagrams.net" modified="2024-01-03T03:43:20.761Z" agent="Mozilla/5.0 (Windows NT 10.0; Win64; x64) AppleWebKit/537.36 (KHTML, like Gecko) Chrome/120.0.0.0 Safari/537.36" etag="jDEwglCCFDdNF6mfh-z0" version="22.1.16" type="device">
  <diagram id="94Z2-I9QZ_mszZyGxkvA" name="第 1 页">
    <mxGraphModel dx="1659" dy="1880" grid="0" gridSize="10" guides="1" tooltips="1" connect="1" arrows="1" fold="1" page="0" pageScale="1" pageWidth="827" pageHeight="1169" background="none" math="0" shadow="0">
      <root>
        <mxCell id="0" />
        <mxCell id="1" parent="0" />
        <mxCell id="LViINPk8AAwWqA4m8oOH-559" value="Account" style="shape=table;startSize=30;container=1;collapsible=0;childLayout=tableLayout;strokeColor=default;fontSize=16;" parent="1" vertex="1">
          <mxGeometry x="591.3051635742186" y="-546.9021228608631" width="1206" height="70" as="geometry" />
        </mxCell>
        <mxCell id="LViINPk8AAwWqA4m8oOH-560" value="" style="shape=tableRow;horizontal=0;startSize=0;swimlaneHead=0;swimlaneBody=0;strokeColor=inherit;top=0;left=0;bottom=0;right=0;collapsible=0;dropTarget=0;fillColor=none;points=[[0,0.5],[1,0.5]];portConstraint=eastwest;fontSize=16;" parent="LViINPk8AAwWqA4m8oOH-559" vertex="1">
          <mxGeometry y="30" width="1206" height="40" as="geometry" />
        </mxCell>
        <mxCell id="LViINPk8AAwWqA4m8oOH-561" value="account_uuid" style="shape=partialRectangle;html=1;whiteSpace=wrap;connectable=0;strokeColor=inherit;overflow=hidden;fillColor=none;top=0;left=0;bottom=0;right=0;pointerEvents=1;fontSize=16;" parent="LViINPk8AAwWqA4m8oOH-560" vertex="1">
          <mxGeometry width="109" height="40" as="geometry">
            <mxRectangle width="109" height="40" as="alternateBounds" />
          </mxGeometry>
        </mxCell>
        <mxCell id="LViINPk8AAwWqA4m8oOH-562" value="name" style="shape=partialRectangle;html=1;whiteSpace=wrap;connectable=0;strokeColor=inherit;overflow=hidden;fillColor=none;top=0;left=0;bottom=0;right=0;pointerEvents=1;fontSize=16;" parent="LViINPk8AAwWqA4m8oOH-560" vertex="1">
          <mxGeometry x="109" width="110" height="40" as="geometry">
            <mxRectangle width="110" height="40" as="alternateBounds" />
          </mxGeometry>
        </mxCell>
        <mxCell id="LViINPk8AAwWqA4m8oOH-563" value="email" style="shape=partialRectangle;html=1;whiteSpace=wrap;connectable=0;strokeColor=inherit;overflow=hidden;fillColor=none;top=0;left=0;bottom=0;right=0;pointerEvents=1;fontSize=16;" parent="LViINPk8AAwWqA4m8oOH-560" vertex="1">
          <mxGeometry x="219" width="111" height="40" as="geometry">
            <mxRectangle width="111" height="40" as="alternateBounds" />
          </mxGeometry>
        </mxCell>
        <mxCell id="LViINPk8AAwWqA4m8oOH-564" value="pwd" style="shape=partialRectangle;html=1;whiteSpace=wrap;connectable=0;strokeColor=inherit;overflow=hidden;fillColor=none;top=0;left=0;bottom=0;right=0;pointerEvents=1;fontSize=16;" parent="LViINPk8AAwWqA4m8oOH-560" vertex="1">
          <mxGeometry x="330" width="109" height="40" as="geometry">
            <mxRectangle width="109" height="40" as="alternateBounds" />
          </mxGeometry>
        </mxCell>
        <mxCell id="LViINPk8AAwWqA4m8oOH-565" value="phone" style="shape=partialRectangle;html=1;whiteSpace=wrap;connectable=0;strokeColor=inherit;overflow=hidden;fillColor=none;top=0;left=0;bottom=0;right=0;pointerEvents=1;fontSize=16;" parent="LViINPk8AAwWqA4m8oOH-560" vertex="1">
          <mxGeometry x="439" width="109" height="40" as="geometry">
            <mxRectangle width="109" height="40" as="alternateBounds" />
          </mxGeometry>
        </mxCell>
        <mxCell id="LViINPk8AAwWqA4m8oOH-566" value="credit_card" style="shape=partialRectangle;html=1;whiteSpace=wrap;connectable=0;strokeColor=inherit;overflow=hidden;fillColor=none;top=0;left=0;bottom=0;right=0;pointerEvents=1;fontSize=16;" parent="LViINPk8AAwWqA4m8oOH-560" vertex="1">
          <mxGeometry x="548" width="110" height="40" as="geometry">
            <mxRectangle width="110" height="40" as="alternateBounds" />
          </mxGeometry>
        </mxCell>
        <mxCell id="LViINPk8AAwWqA4m8oOH-567" value="birthday" style="shape=partialRectangle;html=1;whiteSpace=wrap;connectable=0;strokeColor=inherit;overflow=hidden;fillColor=none;top=0;left=0;bottom=0;right=0;pointerEvents=1;fontSize=16;" parent="LViINPk8AAwWqA4m8oOH-560" vertex="1">
          <mxGeometry x="658" width="109" height="40" as="geometry">
            <mxRectangle width="109" height="40" as="alternateBounds" />
          </mxGeometry>
        </mxCell>
        <mxCell id="LViINPk8AAwWqA4m8oOH-568" value="address" style="shape=partialRectangle;html=1;whiteSpace=wrap;connectable=0;strokeColor=inherit;overflow=hidden;fillColor=none;top=0;left=0;bottom=0;right=0;pointerEvents=1;fontSize=16;" parent="LViINPk8AAwWqA4m8oOH-560" vertex="1">
          <mxGeometry x="767" width="109" height="40" as="geometry">
            <mxRectangle width="109" height="40" as="alternateBounds" />
          </mxGeometry>
        </mxCell>
        <mxCell id="LViINPk8AAwWqA4m8oOH-569" value="is_active" style="shape=partialRectangle;html=1;whiteSpace=wrap;connectable=0;strokeColor=inherit;overflow=hidden;fillColor=none;top=0;left=0;bottom=0;right=0;pointerEvents=1;fontSize=16;" parent="LViINPk8AAwWqA4m8oOH-560" vertex="1">
          <mxGeometry x="876" width="111" height="40" as="geometry">
            <mxRectangle width="111" height="40" as="alternateBounds" />
          </mxGeometry>
        </mxCell>
        <mxCell id="LViINPk8AAwWqA4m8oOH-570" value="role" style="shape=partialRectangle;html=1;whiteSpace=wrap;connectable=0;strokeColor=inherit;overflow=hidden;fillColor=none;top=0;left=0;bottom=0;right=0;pointerEvents=1;fontSize=16;" parent="LViINPk8AAwWqA4m8oOH-560" vertex="1">
          <mxGeometry x="987" width="110" height="40" as="geometry">
            <mxRectangle width="110" height="40" as="alternateBounds" />
          </mxGeometry>
        </mxCell>
        <mxCell id="LViINPk8AAwWqA4m8oOH-571" value="update_time" style="shape=partialRectangle;html=1;whiteSpace=wrap;connectable=0;strokeColor=inherit;overflow=hidden;fillColor=none;top=0;left=0;bottom=0;right=0;pointerEvents=1;fontSize=16;" parent="LViINPk8AAwWqA4m8oOH-560" vertex="1">
          <mxGeometry x="1097" width="109" height="40" as="geometry">
            <mxRectangle width="109" height="40" as="alternateBounds" />
          </mxGeometry>
        </mxCell>
        <mxCell id="LViINPk8AAwWqA4m8oOH-572" value="Shop" style="shape=table;startSize=30;container=1;collapsible=0;childLayout=tableLayout;strokeColor=default;fontSize=16;" parent="1" vertex="1">
          <mxGeometry x="591.3051635742186" y="-392.9021228608631" width="782" height="70" as="geometry" />
        </mxCell>
        <mxCell id="LViINPk8AAwWqA4m8oOH-573" value="" style="shape=tableRow;horizontal=0;startSize=0;swimlaneHead=0;swimlaneBody=0;strokeColor=inherit;top=0;left=0;bottom=0;right=0;collapsible=0;dropTarget=0;fillColor=none;points=[[0,0.5],[1,0.5]];portConstraint=eastwest;fontSize=16;" parent="LViINPk8AAwWqA4m8oOH-572" vertex="1">
          <mxGeometry y="30" width="782" height="40" as="geometry" />
        </mxCell>
        <mxCell id="LViINPk8AAwWqA4m8oOH-574" value="shop_uuid" style="shape=partialRectangle;html=1;whiteSpace=wrap;connectable=0;strokeColor=inherit;overflow=hidden;fillColor=none;top=0;left=0;bottom=0;right=0;pointerEvents=1;fontSize=16;" parent="LViINPk8AAwWqA4m8oOH-573" vertex="1">
          <mxGeometry width="130" height="40" as="geometry">
            <mxRectangle width="130" height="40" as="alternateBounds" />
          </mxGeometry>
        </mxCell>
        <mxCell id="LViINPk8AAwWqA4m8oOH-575" value="account_uuuid" style="shape=partialRectangle;html=1;whiteSpace=wrap;connectable=0;strokeColor=inherit;overflow=hidden;fillColor=none;top=0;left=0;bottom=0;right=0;pointerEvents=1;fontSize=16;" parent="LViINPk8AAwWqA4m8oOH-573" vertex="1">
          <mxGeometry x="130" width="131" height="40" as="geometry">
            <mxRectangle width="131" height="40" as="alternateBounds" />
          </mxGeometry>
        </mxCell>
        <mxCell id="LViINPk8AAwWqA4m8oOH-576" value="name" style="shape=partialRectangle;html=1;whiteSpace=wrap;connectable=0;strokeColor=inherit;overflow=hidden;fillColor=none;top=0;left=0;bottom=0;right=0;pointerEvents=1;fontSize=16;" parent="LViINPk8AAwWqA4m8oOH-573" vertex="1">
          <mxGeometry x="261" width="130" height="40" as="geometry">
            <mxRectangle width="130" height="40" as="alternateBounds" />
          </mxGeometry>
        </mxCell>
        <mxCell id="LViINPk8AAwWqA4m8oOH-577" value="description" style="shape=partialRectangle;html=1;whiteSpace=wrap;connectable=0;strokeColor=inherit;overflow=hidden;fillColor=none;top=0;left=0;bottom=0;right=0;pointerEvents=1;fontSize=16;" parent="LViINPk8AAwWqA4m8oOH-573" vertex="1">
          <mxGeometry x="391" width="130" height="40" as="geometry">
            <mxRectangle width="130" height="40" as="alternateBounds" />
          </mxGeometry>
        </mxCell>
        <mxCell id="LViINPk8AAwWqA4m8oOH-578" value="is_active" style="shape=partialRectangle;html=1;whiteSpace=wrap;connectable=0;strokeColor=inherit;overflow=hidden;fillColor=none;top=0;left=0;bottom=0;right=0;pointerEvents=1;fontSize=16;" parent="LViINPk8AAwWqA4m8oOH-573" vertex="1">
          <mxGeometry x="521" width="131" height="40" as="geometry">
            <mxRectangle width="131" height="40" as="alternateBounds" />
          </mxGeometry>
        </mxCell>
        <mxCell id="LViINPk8AAwWqA4m8oOH-579" value="update_time" style="shape=partialRectangle;html=1;whiteSpace=wrap;connectable=0;strokeColor=inherit;overflow=hidden;fillColor=none;top=0;left=0;bottom=0;right=0;pointerEvents=1;fontSize=16;" parent="LViINPk8AAwWqA4m8oOH-573" vertex="1">
          <mxGeometry x="652" width="130" height="40" as="geometry">
            <mxRectangle width="130" height="40" as="alternateBounds" />
          </mxGeometry>
        </mxCell>
        <mxCell id="LViINPk8AAwWqA4m8oOH-580" value="Product" style="shape=table;startSize=30;container=1;collapsible=0;childLayout=tableLayout;strokeColor=default;fontSize=16;" parent="1" vertex="1">
          <mxGeometry x="590.9951635742186" y="-153.00212286086307" width="918" height="70" as="geometry" />
        </mxCell>
        <mxCell id="LViINPk8AAwWqA4m8oOH-581" value="" style="shape=tableRow;horizontal=0;startSize=0;swimlaneHead=0;swimlaneBody=0;strokeColor=inherit;top=0;left=0;bottom=0;right=0;collapsible=0;dropTarget=0;fillColor=none;points=[[0,0.5],[1,0.5]];portConstraint=eastwest;fontSize=16;" parent="LViINPk8AAwWqA4m8oOH-580" vertex="1">
          <mxGeometry y="30" width="918" height="40" as="geometry" />
        </mxCell>
        <mxCell id="LViINPk8AAwWqA4m8oOH-582" value="product_uuid" style="shape=partialRectangle;html=1;whiteSpace=wrap;connectable=0;strokeColor=inherit;overflow=hidden;fillColor=none;top=0;left=0;bottom=0;right=0;pointerEvents=1;fontSize=16;" parent="LViINPk8AAwWqA4m8oOH-581" vertex="1">
          <mxGeometry width="102" height="40" as="geometry">
            <mxRectangle width="102" height="40" as="alternateBounds" />
          </mxGeometry>
        </mxCell>
        <mxCell id="LViINPk8AAwWqA4m8oOH-583" value="shop_uuid" style="shape=partialRectangle;html=1;whiteSpace=wrap;connectable=0;strokeColor=inherit;overflow=hidden;fillColor=none;top=0;left=0;bottom=0;right=0;pointerEvents=1;fontSize=16;" parent="LViINPk8AAwWqA4m8oOH-581" vertex="1">
          <mxGeometry x="102" width="102" height="40" as="geometry">
            <mxRectangle width="102" height="40" as="alternateBounds" />
          </mxGeometry>
        </mxCell>
        <mxCell id="LViINPk8AAwWqA4m8oOH-584" value="name" style="shape=partialRectangle;html=1;whiteSpace=wrap;connectable=0;strokeColor=inherit;overflow=hidden;fillColor=none;top=0;left=0;bottom=0;right=0;pointerEvents=1;fontSize=16;" parent="LViINPk8AAwWqA4m8oOH-581" vertex="1">
          <mxGeometry x="204" width="102" height="40" as="geometry">
            <mxRectangle width="102" height="40" as="alternateBounds" />
          </mxGeometry>
        </mxCell>
        <mxCell id="LViINPk8AAwWqA4m8oOH-585" value="stock" style="shape=partialRectangle;html=1;whiteSpace=wrap;connectable=0;strokeColor=inherit;overflow=hidden;fillColor=none;top=0;left=0;bottom=0;right=0;pointerEvents=1;fontSize=16;" parent="LViINPk8AAwWqA4m8oOH-581" vertex="1">
          <mxGeometry x="306" width="102" height="40" as="geometry">
            <mxRectangle width="102" height="40" as="alternateBounds" />
          </mxGeometry>
        </mxCell>
        <mxCell id="LViINPk8AAwWqA4m8oOH-586" value="price" style="shape=partialRectangle;html=1;whiteSpace=wrap;connectable=0;strokeColor=inherit;overflow=hidden;fillColor=none;top=0;left=0;bottom=0;right=0;pointerEvents=1;fontSize=16;" parent="LViINPk8AAwWqA4m8oOH-581" vertex="1">
          <mxGeometry x="408" width="102" height="40" as="geometry">
            <mxRectangle width="102" height="40" as="alternateBounds" />
          </mxGeometry>
        </mxCell>
        <mxCell id="LViINPk8AAwWqA4m8oOH-587" value="tags" style="shape=partialRectangle;html=1;whiteSpace=wrap;connectable=0;strokeColor=inherit;overflow=hidden;fillColor=none;top=0;left=0;bottom=0;right=0;pointerEvents=1;fontSize=16;" parent="LViINPk8AAwWqA4m8oOH-581" vertex="1">
          <mxGeometry x="510" width="102" height="40" as="geometry">
            <mxRectangle width="102" height="40" as="alternateBounds" />
          </mxGeometry>
        </mxCell>
        <mxCell id="LViINPk8AAwWqA4m8oOH-588" value="description" style="shape=partialRectangle;html=1;whiteSpace=wrap;connectable=0;strokeColor=inherit;overflow=hidden;fillColor=none;top=0;left=0;bottom=0;right=0;pointerEvents=1;fontSize=16;" parent="LViINPk8AAwWqA4m8oOH-581" vertex="1">
          <mxGeometry x="612" width="102" height="40" as="geometry">
            <mxRectangle width="102" height="40" as="alternateBounds" />
          </mxGeometry>
        </mxCell>
        <mxCell id="LViINPk8AAwWqA4m8oOH-589" value="is_active" style="shape=partialRectangle;html=1;whiteSpace=wrap;connectable=0;strokeColor=inherit;overflow=hidden;fillColor=none;top=0;left=0;bottom=0;right=0;pointerEvents=1;fontSize=16;" parent="LViINPk8AAwWqA4m8oOH-581" vertex="1">
          <mxGeometry x="714" width="102" height="40" as="geometry">
            <mxRectangle width="102" height="40" as="alternateBounds" />
          </mxGeometry>
        </mxCell>
        <mxCell id="LViINPk8AAwWqA4m8oOH-590" value="update_time" style="shape=partialRectangle;html=1;whiteSpace=wrap;connectable=0;strokeColor=inherit;overflow=hidden;fillColor=none;top=0;left=0;bottom=0;right=0;pointerEvents=1;fontSize=16;" parent="LViINPk8AAwWqA4m8oOH-581" vertex="1">
          <mxGeometry x="816" width="102" height="40" as="geometry">
            <mxRectangle width="102" height="40" as="alternateBounds" />
          </mxGeometry>
        </mxCell>
        <mxCell id="LViINPk8AAwWqA4m8oOH-591" value="Subscription" style="shape=table;startSize=30;container=1;collapsible=0;childLayout=tableLayout;strokeColor=default;fontSize=16;" parent="1" vertex="1">
          <mxGeometry x="1530.3051635742186" y="-387.9021228608631" width="261" height="70" as="geometry" />
        </mxCell>
        <mxCell id="LViINPk8AAwWqA4m8oOH-592" value="" style="shape=tableRow;horizontal=0;startSize=0;swimlaneHead=0;swimlaneBody=0;strokeColor=inherit;top=0;left=0;bottom=0;right=0;collapsible=0;dropTarget=0;fillColor=none;points=[[0,0.5],[1,0.5]];portConstraint=eastwest;fontSize=16;" parent="LViINPk8AAwWqA4m8oOH-591" vertex="1">
          <mxGeometry y="30" width="261" height="40" as="geometry" />
        </mxCell>
        <mxCell id="LViINPk8AAwWqA4m8oOH-593" value="account_uuid" style="shape=partialRectangle;html=1;whiteSpace=wrap;connectable=0;strokeColor=inherit;overflow=hidden;fillColor=none;top=0;left=0;bottom=0;right=0;pointerEvents=1;fontSize=16;" parent="LViINPk8AAwWqA4m8oOH-592" vertex="1">
          <mxGeometry width="134" height="40" as="geometry">
            <mxRectangle width="134" height="40" as="alternateBounds" />
          </mxGeometry>
        </mxCell>
        <mxCell id="LViINPk8AAwWqA4m8oOH-594" value="shop_uuid" style="shape=partialRectangle;html=1;whiteSpace=wrap;connectable=0;strokeColor=inherit;overflow=hidden;fillColor=none;top=0;left=0;bottom=0;right=0;pointerEvents=1;fontSize=16;" parent="LViINPk8AAwWqA4m8oOH-592" vertex="1">
          <mxGeometry x="134" width="127" height="40" as="geometry">
            <mxRectangle width="127" height="40" as="alternateBounds" />
          </mxGeometry>
        </mxCell>
        <mxCell id="LViINPk8AAwWqA4m8oOH-595" value="Transaction" style="shape=table;startSize=30;container=1;collapsible=0;childLayout=tableLayout;strokeColor=default;fontSize=16;" parent="1" vertex="1">
          <mxGeometry x="590.9951635742186" y="23.997877139136932" width="1017" height="70" as="geometry" />
        </mxCell>
        <mxCell id="LViINPk8AAwWqA4m8oOH-596" value="" style="shape=tableRow;horizontal=0;startSize=0;swimlaneHead=0;swimlaneBody=0;strokeColor=inherit;top=0;left=0;bottom=0;right=0;collapsible=0;dropTarget=0;fillColor=none;points=[[0,0.5],[1,0.5]];portConstraint=eastwest;fontSize=16;" parent="LViINPk8AAwWqA4m8oOH-595" vertex="1">
          <mxGeometry y="30" width="1017" height="40" as="geometry" />
        </mxCell>
        <mxCell id="LViINPk8AAwWqA4m8oOH-597" value="transaction_uuid" style="shape=partialRectangle;html=1;whiteSpace=wrap;connectable=0;strokeColor=inherit;overflow=hidden;fillColor=none;top=0;left=0;bottom=0;right=0;pointerEvents=1;fontSize=16;" parent="LViINPk8AAwWqA4m8oOH-596" vertex="1">
          <mxGeometry width="126" height="40" as="geometry">
            <mxRectangle width="126" height="40" as="alternateBounds" />
          </mxGeometry>
        </mxCell>
        <mxCell id="LViINPk8AAwWqA4m8oOH-598" value="account_uuid" style="shape=partialRectangle;html=1;whiteSpace=wrap;connectable=0;strokeColor=inherit;overflow=hidden;fillColor=none;top=0;left=0;bottom=0;right=0;pointerEvents=1;fontSize=16;" parent="LViINPk8AAwWqA4m8oOH-596" vertex="1">
          <mxGeometry x="126" width="128" height="40" as="geometry">
            <mxRectangle width="128" height="40" as="alternateBounds" />
          </mxGeometry>
        </mxCell>
        <mxCell id="LViINPk8AAwWqA4m8oOH-599" value="shop_uuid" style="shape=partialRectangle;html=1;whiteSpace=wrap;connectable=0;strokeColor=inherit;overflow=hidden;fillColor=none;top=0;left=0;bottom=0;right=0;pointerEvents=1;fontSize=16;" parent="LViINPk8AAwWqA4m8oOH-596" vertex="1">
          <mxGeometry x="254" width="126" height="40" as="geometry">
            <mxRectangle width="126" height="40" as="alternateBounds" />
          </mxGeometry>
        </mxCell>
        <mxCell id="LViINPk8AAwWqA4m8oOH-600" value="coupon_code" style="shape=partialRectangle;html=1;whiteSpace=wrap;connectable=0;strokeColor=inherit;overflow=hidden;fillColor=none;top=0;left=0;bottom=0;right=0;pointerEvents=1;fontSize=16;" parent="LViINPk8AAwWqA4m8oOH-596" vertex="1">
          <mxGeometry x="380" width="130" height="40" as="geometry">
            <mxRectangle width="130" height="40" as="alternateBounds" />
          </mxGeometry>
        </mxCell>
        <mxCell id="LViINPk8AAwWqA4m8oOH-601" value="receive_time" style="shape=partialRectangle;html=1;whiteSpace=wrap;connectable=0;strokeColor=inherit;overflow=hidden;fillColor=none;top=0;left=0;bottom=0;right=0;pointerEvents=1;fontSize=16;" parent="LViINPk8AAwWqA4m8oOH-596" vertex="1">
          <mxGeometry x="510" width="127" height="40" as="geometry">
            <mxRectangle width="127" height="40" as="alternateBounds" />
          </mxGeometry>
        </mxCell>
        <mxCell id="LViINPk8AAwWqA4m8oOH-602" value="status" style="shape=partialRectangle;html=1;whiteSpace=wrap;connectable=0;strokeColor=inherit;overflow=hidden;fillColor=none;top=0;left=0;bottom=0;right=0;pointerEvents=1;fontSize=16;" parent="LViINPk8AAwWqA4m8oOH-596" vertex="1">
          <mxGeometry x="637" width="126" height="40" as="geometry">
            <mxRectangle width="126" height="40" as="alternateBounds" />
          </mxGeometry>
        </mxCell>
        <mxCell id="LViINPk8AAwWqA4m8oOH-603" value="order_time" style="shape=partialRectangle;html=1;whiteSpace=wrap;connectable=0;strokeColor=inherit;overflow=hidden;fillColor=none;top=0;left=0;bottom=0;right=0;pointerEvents=1;fontSize=16;" parent="LViINPk8AAwWqA4m8oOH-596" vertex="1">
          <mxGeometry x="763" width="128" height="40" as="geometry">
            <mxRectangle width="128" height="40" as="alternateBounds" />
          </mxGeometry>
        </mxCell>
        <mxCell id="LViINPk8AAwWqA4m8oOH-604" value="update_time" style="shape=partialRectangle;html=1;whiteSpace=wrap;connectable=0;strokeColor=inherit;overflow=hidden;fillColor=none;top=0;left=0;bottom=0;right=0;pointerEvents=1;fontSize=16;" parent="LViINPk8AAwWqA4m8oOH-596" vertex="1">
          <mxGeometry x="891" width="126" height="40" as="geometry">
            <mxRectangle width="126" height="40" as="alternateBounds" />
          </mxGeometry>
        </mxCell>
        <mxCell id="LViINPk8AAwWqA4m8oOH-605" value="TransactionProductLog" style="shape=table;startSize=30;container=1;collapsible=0;childLayout=tableLayout;strokeColor=default;fontSize=16;" parent="1" vertex="1">
          <mxGeometry x="593.9951635742186" y="207.9978771391369" width="388" height="70" as="geometry" />
        </mxCell>
        <mxCell id="LViINPk8AAwWqA4m8oOH-606" value="" style="shape=tableRow;horizontal=0;startSize=0;swimlaneHead=0;swimlaneBody=0;strokeColor=inherit;top=0;left=0;bottom=0;right=0;collapsible=0;dropTarget=0;fillColor=none;points=[[0,0.5],[1,0.5]];portConstraint=eastwest;fontSize=16;" parent="LViINPk8AAwWqA4m8oOH-605" vertex="1">
          <mxGeometry y="30" width="388" height="40" as="geometry" />
        </mxCell>
        <mxCell id="LViINPk8AAwWqA4m8oOH-607" value="transaction_uuid" style="shape=partialRectangle;html=1;whiteSpace=wrap;connectable=0;strokeColor=inherit;overflow=hidden;fillColor=none;top=0;left=0;bottom=0;right=0;pointerEvents=1;fontSize=16;" parent="LViINPk8AAwWqA4m8oOH-606" vertex="1">
          <mxGeometry width="134" height="40" as="geometry">
            <mxRectangle width="134" height="40" as="alternateBounds" />
          </mxGeometry>
        </mxCell>
        <mxCell id="LViINPk8AAwWqA4m8oOH-608" value="product_uuid" style="shape=partialRectangle;html=1;whiteSpace=wrap;connectable=0;strokeColor=inherit;overflow=hidden;fillColor=none;top=0;left=0;bottom=0;right=0;pointerEvents=1;fontSize=16;" parent="LViINPk8AAwWqA4m8oOH-606" vertex="1">
          <mxGeometry x="134" width="127" height="40" as="geometry">
            <mxRectangle width="127" height="40" as="alternateBounds" />
          </mxGeometry>
        </mxCell>
        <mxCell id="LViINPk8AAwWqA4m8oOH-609" value="quantity" style="shape=partialRectangle;html=1;whiteSpace=wrap;connectable=0;strokeColor=inherit;overflow=hidden;fillColor=none;top=0;left=0;bottom=0;right=0;pointerEvents=1;fontSize=16;" parent="LViINPk8AAwWqA4m8oOH-606" vertex="1">
          <mxGeometry x="261" width="127" height="40" as="geometry">
            <mxRectangle width="127" height="40" as="alternateBounds" />
          </mxGeometry>
        </mxCell>
        <mxCell id="LViINPk8AAwWqA4m8oOH-610" value="Comment" style="shape=table;startSize=30;container=1;collapsible=0;childLayout=tableLayout;strokeColor=default;fontSize=16;" parent="1" vertex="1">
          <mxGeometry x="1113.9951635742186" y="203.9978771391369" width="651" height="70" as="geometry" />
        </mxCell>
        <mxCell id="LViINPk8AAwWqA4m8oOH-611" value="" style="shape=tableRow;horizontal=0;startSize=0;swimlaneHead=0;swimlaneBody=0;strokeColor=inherit;top=0;left=0;bottom=0;right=0;collapsible=0;dropTarget=0;fillColor=none;points=[[0,0.5],[1,0.5]];portConstraint=eastwest;fontSize=16;" parent="LViINPk8AAwWqA4m8oOH-610" vertex="1">
          <mxGeometry y="30" width="651" height="40" as="geometry" />
        </mxCell>
        <mxCell id="LViINPk8AAwWqA4m8oOH-612" value="comment_uuid" style="shape=partialRectangle;html=1;whiteSpace=wrap;connectable=0;strokeColor=inherit;overflow=hidden;fillColor=none;top=0;left=0;bottom=0;right=0;pointerEvents=1;fontSize=16;" parent="LViINPk8AAwWqA4m8oOH-611" vertex="1">
          <mxGeometry width="130" height="40" as="geometry">
            <mxRectangle width="130" height="40" as="alternateBounds" />
          </mxGeometry>
        </mxCell>
        <mxCell id="LViINPk8AAwWqA4m8oOH-613" value="product_uuid" style="shape=partialRectangle;html=1;whiteSpace=wrap;connectable=0;strokeColor=inherit;overflow=hidden;fillColor=none;top=0;left=0;bottom=0;right=0;pointerEvents=1;fontSize=16;" parent="LViINPk8AAwWqA4m8oOH-611" vertex="1">
          <mxGeometry x="130" width="130" height="40" as="geometry">
            <mxRectangle width="130" height="40" as="alternateBounds" />
          </mxGeometry>
        </mxCell>
        <mxCell id="LViINPk8AAwWqA4m8oOH-614" value="account_uuuid" style="shape=partialRectangle;html=1;whiteSpace=wrap;connectable=0;strokeColor=inherit;overflow=hidden;fillColor=none;top=0;left=0;bottom=0;right=0;pointerEvents=1;fontSize=16;" parent="LViINPk8AAwWqA4m8oOH-611" vertex="1">
          <mxGeometry x="260" width="131" height="40" as="geometry">
            <mxRectangle width="131" height="40" as="alternateBounds" />
          </mxGeometry>
        </mxCell>
        <mxCell id="LViINPk8AAwWqA4m8oOH-615" value="text" style="shape=partialRectangle;html=1;whiteSpace=wrap;connectable=0;strokeColor=inherit;overflow=hidden;fillColor=none;top=0;left=0;bottom=0;right=0;pointerEvents=1;fontSize=16;" parent="LViINPk8AAwWqA4m8oOH-611" vertex="1">
          <mxGeometry x="391" width="130" height="40" as="geometry">
            <mxRectangle width="130" height="40" as="alternateBounds" />
          </mxGeometry>
        </mxCell>
        <mxCell id="LViINPk8AAwWqA4m8oOH-616" value="update_time" style="shape=partialRectangle;html=1;whiteSpace=wrap;connectable=0;strokeColor=inherit;overflow=hidden;fillColor=none;top=0;left=0;bottom=0;right=0;pointerEvents=1;fontSize=16;" parent="LViINPk8AAwWqA4m8oOH-611" vertex="1">
          <mxGeometry x="521" width="130" height="40" as="geometry">
            <mxRectangle width="130" height="40" as="alternateBounds" />
          </mxGeometry>
        </mxCell>
        <mxCell id="LViINPk8AAwWqA4m8oOH-617" value="HateList" style="shape=table;startSize=30;container=1;collapsible=0;childLayout=tableLayout;strokeColor=default;fontSize=16;" parent="1" vertex="1">
          <mxGeometry x="590.9951635742186" y="393.9978771391369" width="388" height="70" as="geometry" />
        </mxCell>
        <mxCell id="LViINPk8AAwWqA4m8oOH-618" value="" style="shape=tableRow;horizontal=0;startSize=0;swimlaneHead=0;swimlaneBody=0;strokeColor=inherit;top=0;left=0;bottom=0;right=0;collapsible=0;dropTarget=0;fillColor=none;points=[[0,0.5],[1,0.5]];portConstraint=eastwest;fontSize=16;" parent="LViINPk8AAwWqA4m8oOH-617" vertex="1">
          <mxGeometry y="30" width="388" height="40" as="geometry" />
        </mxCell>
        <mxCell id="LViINPk8AAwWqA4m8oOH-619" value="account_uuid" style="shape=partialRectangle;html=1;whiteSpace=wrap;connectable=0;strokeColor=inherit;overflow=hidden;fillColor=none;top=0;left=0;bottom=0;right=0;pointerEvents=1;fontSize=16;" parent="LViINPk8AAwWqA4m8oOH-618" vertex="1">
          <mxGeometry width="134" height="40" as="geometry">
            <mxRectangle width="134" height="40" as="alternateBounds" />
          </mxGeometry>
        </mxCell>
        <mxCell id="LViINPk8AAwWqA4m8oOH-620" value="comment_uuid" style="shape=partialRectangle;html=1;whiteSpace=wrap;connectable=0;strokeColor=inherit;overflow=hidden;fillColor=none;top=0;left=0;bottom=0;right=0;pointerEvents=1;fontSize=16;" parent="LViINPk8AAwWqA4m8oOH-618" vertex="1">
          <mxGeometry x="134" width="127" height="40" as="geometry">
            <mxRectangle width="127" height="40" as="alternateBounds" />
          </mxGeometry>
        </mxCell>
        <mxCell id="LViINPk8AAwWqA4m8oOH-621" value="if_hates" style="shape=partialRectangle;html=1;whiteSpace=wrap;connectable=0;strokeColor=inherit;overflow=hidden;fillColor=none;top=0;left=0;bottom=0;right=0;pointerEvents=1;fontSize=16;" parent="LViINPk8AAwWqA4m8oOH-618" vertex="1">
          <mxGeometry x="261" width="127" height="40" as="geometry">
            <mxRectangle width="127" height="40" as="alternateBounds" />
          </mxGeometry>
        </mxCell>
        <mxCell id="LViINPk8AAwWqA4m8oOH-622" value="Coupon" style="shape=table;startSize=30;container=1;collapsible=0;childLayout=tableLayout;strokeColor=default;fontSize=16;" parent="1" vertex="1">
          <mxGeometry x="1089.9951635742186" y="393.9978771391369" width="521" height="70" as="geometry" />
        </mxCell>
        <mxCell id="LViINPk8AAwWqA4m8oOH-623" value="" style="shape=tableRow;horizontal=0;startSize=0;swimlaneHead=0;swimlaneBody=0;strokeColor=inherit;top=0;left=0;bottom=0;right=0;collapsible=0;dropTarget=0;fillColor=none;points=[[0,0.5],[1,0.5]];portConstraint=eastwest;fontSize=16;" parent="LViINPk8AAwWqA4m8oOH-622" vertex="1">
          <mxGeometry y="30" width="521" height="40" as="geometry" />
        </mxCell>
        <mxCell id="LViINPk8AAwWqA4m8oOH-624" value="coupon_code" style="shape=partialRectangle;html=1;whiteSpace=wrap;connectable=0;strokeColor=inherit;overflow=hidden;fillColor=none;top=0;left=0;bottom=0;right=0;pointerEvents=1;fontSize=16;" parent="LViINPk8AAwWqA4m8oOH-623" vertex="1">
          <mxGeometry width="130" height="40" as="geometry">
            <mxRectangle width="130" height="40" as="alternateBounds" />
          </mxGeometry>
        </mxCell>
        <mxCell id="LViINPk8AAwWqA4m8oOH-625" value="discount" style="shape=partialRectangle;html=1;whiteSpace=wrap;connectable=0;strokeColor=inherit;overflow=hidden;fillColor=none;top=0;left=0;bottom=0;right=0;pointerEvents=1;fontSize=16;" parent="LViINPk8AAwWqA4m8oOH-623" vertex="1">
          <mxGeometry x="130" width="130" height="40" as="geometry">
            <mxRectangle width="130" height="40" as="alternateBounds" />
          </mxGeometry>
        </mxCell>
        <mxCell id="LViINPk8AAwWqA4m8oOH-626" value="expire_time" style="shape=partialRectangle;html=1;whiteSpace=wrap;connectable=0;strokeColor=inherit;overflow=hidden;fillColor=none;top=0;left=0;bottom=0;right=0;pointerEvents=1;fontSize=16;" parent="LViINPk8AAwWqA4m8oOH-623" vertex="1">
          <mxGeometry x="260" width="131" height="40" as="geometry">
            <mxRectangle width="131" height="40" as="alternateBounds" />
          </mxGeometry>
        </mxCell>
        <mxCell id="LViINPk8AAwWqA4m8oOH-627" value="update_time" style="shape=partialRectangle;html=1;whiteSpace=wrap;connectable=0;strokeColor=inherit;overflow=hidden;fillColor=none;top=0;left=0;bottom=0;right=0;pointerEvents=1;fontSize=16;" parent="LViINPk8AAwWqA4m8oOH-623" vertex="1">
          <mxGeometry x="391" width="130" height="40" as="geometry">
            <mxRectangle width="130" height="40" as="alternateBounds" />
          </mxGeometry>
        </mxCell>
        <mxCell id="LViINPk8AAwWqA4m8oOH-628" value="" style="edgeStyle=elbowEdgeStyle;elbow=vertical;endArrow=classic;html=1;curved=0;rounded=0;endSize=8;startSize=8;" parent="1" edge="1">
          <mxGeometry width="50" height="50" relative="1" as="geometry">
            <mxPoint x="1580.3051635742186" y="-408.9021228608631" as="sourcePoint" />
            <mxPoint x="1745.8551635742185" y="-475.42212286086306" as="targetPoint" />
            <Array as="points">
              <mxPoint x="1087.8551635742185" y="-408.42212286086306" />
            </Array>
          </mxGeometry>
        </mxCell>
        <mxCell id="LViINPk8AAwWqA4m8oOH-629" value="" style="edgeStyle=elbowEdgeStyle;elbow=vertical;endArrow=classic;html=1;curved=0;rounded=0;endSize=8;startSize=8;" parent="1" edge="1">
          <mxGeometry width="50" height="50" relative="1" as="geometry">
            <mxPoint x="1468.3051635742186" y="-410.3821228608631" as="sourcePoint" />
            <mxPoint x="1633.8551635742185" y="-476.9021228608631" as="targetPoint" />
            <Array as="points">
              <mxPoint x="975.8551635742185" y="-409.9021228608631" />
            </Array>
          </mxGeometry>
        </mxCell>
        <mxCell id="LViINPk8AAwWqA4m8oOH-630" value="" style="edgeStyle=elbowEdgeStyle;elbow=vertical;endArrow=classic;html=1;curved=0;rounded=0;endSize=8;startSize=8;" parent="1" edge="1">
          <mxGeometry width="50" height="50" relative="1" as="geometry">
            <mxPoint x="1370.3051635742186" y="-410.3821228608631" as="sourcePoint" />
            <mxPoint x="1535.8551635742185" y="-476.9021228608631" as="targetPoint" />
            <Array as="points">
              <mxPoint x="877.8551635742185" y="-409.9021228608631" />
            </Array>
          </mxGeometry>
        </mxCell>
        <mxCell id="LViINPk8AAwWqA4m8oOH-631" value="" style="edgeStyle=elbowEdgeStyle;elbow=vertical;endArrow=classic;html=1;curved=0;rounded=0;endSize=8;startSize=8;" parent="1" edge="1">
          <mxGeometry width="50" height="50" relative="1" as="geometry">
            <mxPoint x="1249.3051635742186" y="-410.3821228608631" as="sourcePoint" />
            <mxPoint x="1414.8551635742185" y="-476.9021228608631" as="targetPoint" />
            <Array as="points">
              <mxPoint x="756.8551635742185" y="-409.9021228608631" />
            </Array>
          </mxGeometry>
        </mxCell>
        <mxCell id="LViINPk8AAwWqA4m8oOH-632" value="" style="edgeStyle=elbowEdgeStyle;elbow=vertical;endArrow=classic;html=1;curved=0;rounded=0;endSize=8;startSize=8;" parent="1" edge="1">
          <mxGeometry width="50" height="50" relative="1" as="geometry">
            <mxPoint x="1144.3051635742186" y="-410.3821228608631" as="sourcePoint" />
            <mxPoint x="1309.8551635742185" y="-476.9021228608631" as="targetPoint" />
            <Array as="points">
              <mxPoint x="651.8551635742185" y="-409.9021228608631" />
            </Array>
          </mxGeometry>
        </mxCell>
        <mxCell id="LViINPk8AAwWqA4m8oOH-633" value="" style="edgeStyle=elbowEdgeStyle;elbow=vertical;endArrow=classic;html=1;curved=0;rounded=0;endSize=8;startSize=8;" parent="1" edge="1">
          <mxGeometry width="50" height="50" relative="1" as="geometry">
            <mxPoint x="1029.3051635742186" y="-410.3821228608631" as="sourcePoint" />
            <mxPoint x="1194.8551635742185" y="-476.9021228608631" as="targetPoint" />
            <Array as="points">
              <mxPoint x="536.8551635742185" y="-409.9021228608631" />
            </Array>
          </mxGeometry>
        </mxCell>
        <mxCell id="LViINPk8AAwWqA4m8oOH-634" value="" style="edgeStyle=elbowEdgeStyle;elbow=vertical;endArrow=classic;html=1;curved=0;rounded=0;endSize=8;startSize=8;" parent="1" edge="1">
          <mxGeometry width="50" height="50" relative="1" as="geometry">
            <mxPoint x="924.3051635742186" y="-410.3821228608631" as="sourcePoint" />
            <mxPoint x="1089.8551635742185" y="-476.9021228608631" as="targetPoint" />
            <Array as="points">
              <mxPoint x="431.8551635742185" y="-409.9021228608631" />
            </Array>
          </mxGeometry>
        </mxCell>
        <mxCell id="LViINPk8AAwWqA4m8oOH-635" value="" style="edgeStyle=elbowEdgeStyle;elbow=vertical;endArrow=classic;html=1;curved=0;rounded=0;endSize=8;startSize=8;" parent="1" edge="1">
          <mxGeometry width="50" height="50" relative="1" as="geometry">
            <mxPoint x="812.3051635742186" y="-410.3821228608631" as="sourcePoint" />
            <mxPoint x="977.8551635742185" y="-476.9021228608631" as="targetPoint" />
            <Array as="points">
              <mxPoint x="319.8551635742185" y="-409.9021228608631" />
            </Array>
          </mxGeometry>
        </mxCell>
        <mxCell id="LViINPk8AAwWqA4m8oOH-636" value="" style="edgeStyle=elbowEdgeStyle;elbow=vertical;endArrow=classic;html=1;curved=0;rounded=0;endSize=8;startSize=8;" parent="1" edge="1">
          <mxGeometry width="50" height="50" relative="1" as="geometry">
            <mxPoint x="707.3051635742186" y="-410.3821228608631" as="sourcePoint" />
            <mxPoint x="872.8551635742185" y="-476.9021228608631" as="targetPoint" />
            <Array as="points">
              <mxPoint x="214.85516357421875" y="-409.9021228608631" />
            </Array>
          </mxGeometry>
        </mxCell>
        <mxCell id="LViINPk8AAwWqA4m8oOH-637" value="" style="edgeStyle=elbowEdgeStyle;elbow=vertical;endArrow=classic;html=1;curved=0;rounded=0;endSize=8;startSize=8;exitX=0.041;exitY=0.963;exitDx=0;exitDy=0;exitPerimeter=0;" parent="1" source="LViINPk8AAwWqA4m8oOH-560" edge="1">
          <mxGeometry width="50" height="50" relative="1" as="geometry">
            <mxPoint x="595.3051635742186" y="-410.3821228608631" as="sourcePoint" />
            <mxPoint x="760.8551635742185" y="-476.9021228608631" as="targetPoint" />
            <Array as="points">
              <mxPoint x="102.85516357421875" y="-409.9021228608631" />
            </Array>
          </mxGeometry>
        </mxCell>
        <mxCell id="LViINPk8AAwWqA4m8oOH-638" value="" style="edgeStyle=elbowEdgeStyle;elbow=vertical;endArrow=classic;html=1;curved=0;rounded=0;endSize=8;startSize=8;entryX=0.91;entryY=1.104;entryDx=0;entryDy=0;entryPerimeter=0;" parent="1" target="LViINPk8AAwWqA4m8oOH-573" edge="1">
          <mxGeometry width="50" height="50" relative="1" as="geometry">
            <mxPoint x="1047.3051635742186" y="-255.3821228608631" as="sourcePoint" />
            <mxPoint x="1212.8551635742185" y="-321.9021228608631" as="targetPoint" />
            <Array as="points">
              <mxPoint x="554.8551635742185" y="-254.90212286086307" />
            </Array>
          </mxGeometry>
        </mxCell>
        <mxCell id="LViINPk8AAwWqA4m8oOH-639" value="" style="edgeStyle=elbowEdgeStyle;elbow=vertical;endArrow=classic;html=1;curved=0;rounded=0;endSize=8;startSize=8;entryX=0.736;entryY=1.052;entryDx=0;entryDy=0;entryPerimeter=0;" parent="1" target="LViINPk8AAwWqA4m8oOH-573" edge="1">
          <mxGeometry width="50" height="50" relative="1" as="geometry">
            <mxPoint x="942.3051635742186" y="-255.3821228608631" as="sourcePoint" />
            <mxPoint x="1107.8551635742185" y="-321.9021228608631" as="targetPoint" />
            <Array as="points">
              <mxPoint x="449.8551635742185" y="-254.90212286086307" />
            </Array>
          </mxGeometry>
        </mxCell>
        <mxCell id="LViINPk8AAwWqA4m8oOH-640" value="" style="edgeStyle=elbowEdgeStyle;elbow=vertical;endArrow=classic;html=1;curved=0;rounded=0;endSize=8;startSize=8;entryX=0.587;entryY=1.025;entryDx=0;entryDy=0;entryPerimeter=0;" parent="1" target="LViINPk8AAwWqA4m8oOH-573" edge="1">
          <mxGeometry width="50" height="50" relative="1" as="geometry">
            <mxPoint x="693" y="-255" as="sourcePoint" />
            <mxPoint x="995.8551635742185" y="-321.9021228608631" as="targetPoint" />
            <Array as="points">
              <mxPoint x="337.8551635742185" y="-254.90212286086307" />
            </Array>
          </mxGeometry>
        </mxCell>
        <mxCell id="LViINPk8AAwWqA4m8oOH-641" value="" style="edgeStyle=elbowEdgeStyle;elbow=vertical;endArrow=classic;html=1;curved=0;rounded=0;endSize=8;startSize=8;entryX=0.428;entryY=1.052;entryDx=0;entryDy=0;entryPerimeter=0;" parent="1" target="LViINPk8AAwWqA4m8oOH-573" edge="1">
          <mxGeometry width="50" height="50" relative="1" as="geometry">
            <mxPoint x="661.3051635742186" y="-320.9021228608631" as="sourcePoint" />
            <mxPoint x="890.8551635742185" y="-321.9021228608631" as="targetPoint" />
            <Array as="points">
              <mxPoint x="232.85516357421852" y="-254.90212286086307" />
            </Array>
          </mxGeometry>
        </mxCell>
        <mxCell id="LViINPk8AAwWqA4m8oOH-642" value="" style="edgeStyle=elbowEdgeStyle;elbow=vertical;endArrow=classic;html=1;curved=0;rounded=0;endSize=8;startSize=8;" parent="1" edge="1">
          <mxGeometry width="50" height="50" relative="1" as="geometry">
            <mxPoint x="1300.9951635742186" y="-11.002122860863068" as="sourcePoint" />
            <mxPoint x="1466.5451635742186" y="-77.52212286086305" as="targetPoint" />
            <Array as="points">
              <mxPoint x="808.5451635742186" y="-10.52212286086305" />
            </Array>
          </mxGeometry>
        </mxCell>
        <mxCell id="LViINPk8AAwWqA4m8oOH-643" value="" style="edgeStyle=elbowEdgeStyle;elbow=vertical;endArrow=classic;html=1;curved=0;rounded=0;endSize=8;startSize=8;" parent="1" edge="1">
          <mxGeometry width="50" height="50" relative="1" as="geometry">
            <mxPoint x="1188.9951635742186" y="-12.482122860863086" as="sourcePoint" />
            <mxPoint x="1354.5451635742186" y="-79.00212286086307" as="targetPoint" />
            <Array as="points">
              <mxPoint x="696.5451635742186" y="-12.002122860863068" />
            </Array>
          </mxGeometry>
        </mxCell>
        <mxCell id="LViINPk8AAwWqA4m8oOH-644" value="" style="edgeStyle=elbowEdgeStyle;elbow=vertical;endArrow=classic;html=1;curved=0;rounded=0;endSize=8;startSize=8;" parent="1" edge="1">
          <mxGeometry width="50" height="50" relative="1" as="geometry">
            <mxPoint x="1090.9951635742186" y="-12.482122860863086" as="sourcePoint" />
            <mxPoint x="1256.5451635742186" y="-79.00212286086307" as="targetPoint" />
            <Array as="points">
              <mxPoint x="598.5451635742186" y="-12.002122860863068" />
            </Array>
          </mxGeometry>
        </mxCell>
        <mxCell id="LViINPk8AAwWqA4m8oOH-645" value="" style="edgeStyle=elbowEdgeStyle;elbow=vertical;endArrow=classic;html=1;curved=0;rounded=0;endSize=8;startSize=8;entryX=0.613;entryY=1.147;entryDx=0;entryDy=0;entryPerimeter=0;" parent="1" target="LViINPk8AAwWqA4m8oOH-581" edge="1">
          <mxGeometry width="50" height="50" relative="1" as="geometry">
            <mxPoint x="969.9951635742186" y="-12.482122860863086" as="sourcePoint" />
            <mxPoint x="1135.5451635742186" y="-79.00212286086307" as="targetPoint" />
            <Array as="points">
              <mxPoint x="477.5451635742185" y="-12.002122860863068" />
            </Array>
          </mxGeometry>
        </mxCell>
        <mxCell id="LViINPk8AAwWqA4m8oOH-646" value="" style="edgeStyle=elbowEdgeStyle;elbow=vertical;endArrow=classic;html=1;curved=0;rounded=0;endSize=8;startSize=8;entryX=0.501;entryY=1.068;entryDx=0;entryDy=0;entryPerimeter=0;" parent="1" target="LViINPk8AAwWqA4m8oOH-581" edge="1">
          <mxGeometry width="50" height="50" relative="1" as="geometry">
            <mxPoint x="864.9951635742186" y="-12.482122860863086" as="sourcePoint" />
            <mxPoint x="1030.5451635742186" y="-79.00212286086307" as="targetPoint" />
            <Array as="points">
              <mxPoint x="372.5451635742185" y="-12.002122860863068" />
            </Array>
          </mxGeometry>
        </mxCell>
        <mxCell id="LViINPk8AAwWqA4m8oOH-647" value="" style="edgeStyle=elbowEdgeStyle;elbow=vertical;endArrow=classic;html=1;curved=0;rounded=0;endSize=8;startSize=8;entryX=0.39;entryY=1.147;entryDx=0;entryDy=0;entryPerimeter=0;" parent="1" target="LViINPk8AAwWqA4m8oOH-581" edge="1">
          <mxGeometry width="50" height="50" relative="1" as="geometry">
            <mxPoint x="748" y="-12" as="sourcePoint" />
            <mxPoint x="915.5451635742186" y="-79.00212286086307" as="targetPoint" />
            <Array as="points">
              <mxPoint x="257.5451635742185" y="-12.002122860863068" />
            </Array>
          </mxGeometry>
        </mxCell>
        <mxCell id="LViINPk8AAwWqA4m8oOH-648" value="" style="edgeStyle=elbowEdgeStyle;elbow=vertical;endArrow=classic;html=1;curved=0;rounded=0;endSize=8;startSize=8;entryX=0.282;entryY=1.068;entryDx=0;entryDy=0;entryPerimeter=0;" parent="1" target="LViINPk8AAwWqA4m8oOH-581" edge="1">
          <mxGeometry width="50" height="50" relative="1" as="geometry">
            <mxPoint x="643.9951635742186" y="-75.00212286086307" as="sourcePoint" />
            <mxPoint x="810.5451635742186" y="-79.00212286086307" as="targetPoint" />
            <Array as="points">
              <mxPoint x="152.54516357421875" y="-12.002122860863068" />
            </Array>
          </mxGeometry>
        </mxCell>
        <mxCell id="LViINPk8AAwWqA4m8oOH-649" value="" style="edgeStyle=elbowEdgeStyle;elbow=vertical;endArrow=classic;html=1;curved=0;rounded=0;endSize=8;startSize=8;" parent="1" edge="1">
          <mxGeometry width="50" height="50" relative="1" as="geometry">
            <mxPoint x="1379.9951635742186" y="165.99787713913693" as="sourcePoint" />
            <mxPoint x="1545.5451635742186" y="99.47787713913695" as="targetPoint" />
            <Array as="points">
              <mxPoint x="887.5451635742186" y="166.47787713913695" />
            </Array>
          </mxGeometry>
        </mxCell>
        <mxCell id="LViINPk8AAwWqA4m8oOH-650" value="" style="edgeStyle=elbowEdgeStyle;elbow=vertical;endArrow=classic;html=1;curved=0;rounded=0;endSize=8;startSize=8;" parent="1" edge="1">
          <mxGeometry width="50" height="50" relative="1" as="geometry">
            <mxPoint x="1265.9951635742186" y="164.5178771391369" as="sourcePoint" />
            <mxPoint x="1405.9951635742186" y="96.99787713913693" as="targetPoint" />
            <Array as="points">
              <mxPoint x="773.5451635742186" y="164.99787713913693" />
            </Array>
          </mxGeometry>
        </mxCell>
        <mxCell id="LViINPk8AAwWqA4m8oOH-651" value="" style="edgeStyle=elbowEdgeStyle;elbow=vertical;endArrow=classic;html=1;curved=0;rounded=0;endSize=8;startSize=8;entryX=0.681;entryY=1.124;entryDx=0;entryDy=0;entryPerimeter=0;" parent="1" target="LViINPk8AAwWqA4m8oOH-596" edge="1">
          <mxGeometry width="50" height="50" relative="1" as="geometry">
            <mxPoint x="895" y="165" as="sourcePoint" />
            <mxPoint x="1333.5451635742186" y="97.99787713913693" as="targetPoint" />
            <Array as="points">
              <mxPoint x="675.5451635742186" y="164.99787713913693" />
            </Array>
          </mxGeometry>
        </mxCell>
        <mxCell id="LViINPk8AAwWqA4m8oOH-652" value="" style="edgeStyle=elbowEdgeStyle;elbow=vertical;endArrow=classic;html=1;curved=0;rounded=0;endSize=8;startSize=8;entryX=0.56;entryY=1.176;entryDx=0;entryDy=0;entryPerimeter=0;" parent="1" target="LViINPk8AAwWqA4m8oOH-596" edge="1">
          <mxGeometry width="50" height="50" relative="1" as="geometry">
            <mxPoint x="1014" y="167" as="sourcePoint" />
            <mxPoint x="1212.5451635742186" y="97.99787713913693" as="targetPoint" />
            <Array as="points">
              <mxPoint x="554.5451635742186" y="164.99787713913693" />
            </Array>
          </mxGeometry>
        </mxCell>
        <mxCell id="LViINPk8AAwWqA4m8oOH-653" value="" style="edgeStyle=elbowEdgeStyle;elbow=vertical;endArrow=classic;html=1;curved=0;rounded=0;endSize=8;startSize=8;exitX=0.072;exitY=1.124;exitDx=0;exitDy=0;exitPerimeter=0;" parent="1" source="LViINPk8AAwWqA4m8oOH-596" edge="1">
          <mxGeometry width="50" height="50" relative="1" as="geometry">
            <mxPoint x="864.9951635742186" y="164.5178771391369" as="sourcePoint" />
            <mxPoint x="1030.5451635742186" y="97.99787713913693" as="targetPoint" />
            <Array as="points">
              <mxPoint x="372.5451635742185" y="164.99787713913693" />
            </Array>
          </mxGeometry>
        </mxCell>
        <mxCell id="LViINPk8AAwWqA4m8oOH-656" value="" style="edgeStyle=elbowEdgeStyle;elbow=vertical;endArrow=classic;html=1;curved=0;rounded=0;endSize=8;startSize=8;exitX=0.072;exitY=1.124;exitDx=0;exitDy=0;exitPerimeter=0;entryX=0.837;entryY=1.049;entryDx=0;entryDy=0;entryPerimeter=0;" parent="1" target="LViINPk8AAwWqA4m8oOH-606" edge="1">
          <mxGeometry width="50" height="50" relative="1" as="geometry">
            <mxPoint x="641.9951635742186" y="282.9978771391369" as="sourcePoint" />
            <mxPoint x="1008.5451635742186" y="281.9978771391369" as="targetPoint" />
            <Array as="points">
              <mxPoint x="350.5451635742185" y="348.9978771391369" />
            </Array>
          </mxGeometry>
        </mxCell>
        <mxCell id="LViINPk8AAwWqA4m8oOH-657" value="" style="edgeStyle=elbowEdgeStyle;elbow=vertical;endArrow=classic;html=1;curved=0;rounded=0;endSize=8;startSize=8;entryX=0.837;entryY=1.049;entryDx=0;entryDy=0;entryPerimeter=0;" parent="1" source="LViINPk8AAwWqA4m8oOH-606" edge="1">
          <mxGeometry width="50" height="50" relative="1" as="geometry">
            <mxPoint x="641.9951635742186" y="280.9978771391369" as="sourcePoint" />
            <mxPoint x="918.9951635742186" y="277.9978771391369" as="targetPoint" />
            <Array as="points">
              <mxPoint x="350.5451635742185" y="346.9978771391369" />
            </Array>
          </mxGeometry>
        </mxCell>
        <mxCell id="LViINPk8AAwWqA4m8oOH-658" value="" style="edgeStyle=elbowEdgeStyle;elbow=vertical;endArrow=classic;html=1;curved=0;rounded=0;endSize=8;startSize=8;entryX=0.889;entryY=0.972;entryDx=0;entryDy=0;entryPerimeter=0;" parent="1" target="LViINPk8AAwWqA4m8oOH-611" edge="1">
          <mxGeometry width="50" height="50" relative="1" as="geometry">
            <mxPoint x="1240" y="343" as="sourcePoint" />
            <mxPoint x="1677.9951635742186" y="276.9978771391369" as="targetPoint" />
            <Array as="points">
              <mxPoint x="1071.5451635742186" y="340.9978771391369" />
            </Array>
          </mxGeometry>
        </mxCell>
        <mxCell id="LViINPk8AAwWqA4m8oOH-659" value="" style="edgeStyle=elbowEdgeStyle;elbow=vertical;endArrow=classic;html=1;curved=0;rounded=0;endSize=8;startSize=8;exitX=0.072;exitY=1.124;exitDx=0;exitDy=0;exitPerimeter=0;entryX=0.706;entryY=1.024;entryDx=0;entryDy=0;entryPerimeter=0;" parent="1" target="LViINPk8AAwWqA4m8oOH-611" edge="1">
          <mxGeometry width="50" height="50" relative="1" as="geometry">
            <mxPoint x="1180.9951635742186" y="274.9978771391369" as="sourcePoint" />
            <mxPoint x="1547.5451635742186" y="273.9978771391369" as="targetPoint" />
            <Array as="points">
              <mxPoint x="889.5451635742186" y="340.9978771391369" />
            </Array>
          </mxGeometry>
        </mxCell>
        <mxCell id="LViINPk8AAwWqA4m8oOH-660" value="" style="edgeStyle=elbowEdgeStyle;elbow=vertical;endArrow=classic;html=1;curved=0;rounded=0;endSize=8;startSize=8;entryX=0.706;entryY=1.024;entryDx=0;entryDy=0;entryPerimeter=0;" parent="1" edge="1">
          <mxGeometry width="50" height="50" relative="1" as="geometry">
            <mxPoint x="1287" y="342" as="sourcePoint" />
            <mxPoint x="1445.9951635742186" y="273.9978771391369" as="targetPoint" />
            <Array as="points">
              <mxPoint x="761.5451635742186" y="339.9978771391369" />
            </Array>
          </mxGeometry>
        </mxCell>
        <mxCell id="LViINPk8AAwWqA4m8oOH-661" value="" style="edgeStyle=elbowEdgeStyle;elbow=vertical;endArrow=classic;html=1;curved=0;rounded=0;endSize=8;startSize=8;entryX=0.837;entryY=1.049;entryDx=0;entryDy=0;entryPerimeter=0;" parent="1" edge="1">
          <mxGeometry width="50" height="50" relative="1" as="geometry">
            <mxPoint x="668.9951635742186" y="468.9978771391369" as="sourcePoint" />
            <mxPoint x="909.9951635742186" y="465.9978771391369" as="targetPoint" />
            <Array as="points">
              <mxPoint x="341.5451635742185" y="534.9978771391369" />
            </Array>
          </mxGeometry>
        </mxCell>
        <mxCell id="LViINPk8AAwWqA4m8oOH-662" value="" style="edgeStyle=elbowEdgeStyle;elbow=vertical;endArrow=classic;html=1;curved=0;rounded=0;endSize=8;startSize=8;entryX=0.837;entryY=1.049;entryDx=0;entryDy=0;entryPerimeter=0;" parent="1" edge="1">
          <mxGeometry width="50" height="50" relative="1" as="geometry">
            <mxPoint x="778.9951635742186" y="463.9978771391369" as="sourcePoint" />
            <mxPoint x="909.9951635742186" y="463.9978771391369" as="targetPoint" />
            <Array as="points">
              <mxPoint x="341.5451635742185" y="532.9978771391369" />
            </Array>
          </mxGeometry>
        </mxCell>
        <mxCell id="LViINPk8AAwWqA4m8oOH-663" value="" style="edgeStyle=elbowEdgeStyle;elbow=vertical;endArrow=classic;html=1;curved=0;rounded=0;endSize=8;startSize=8;entryX=0.877;entryY=1.025;entryDx=0;entryDy=0;entryPerimeter=0;" parent="1" target="LViINPk8AAwWqA4m8oOH-623" edge="1">
          <mxGeometry width="50" height="50" relative="1" as="geometry">
            <mxPoint x="1328.9951635742186" y="534.5178771391369" as="sourcePoint" />
            <mxPoint x="1494.5451635742186" y="467.9978771391369" as="targetPoint" />
            <Array as="points">
              <mxPoint x="836.5451635742186" y="534.9978771391369" />
            </Array>
          </mxGeometry>
        </mxCell>
        <mxCell id="LViINPk8AAwWqA4m8oOH-664" value="" style="edgeStyle=elbowEdgeStyle;elbow=vertical;endArrow=classic;html=1;curved=0;rounded=0;endSize=8;startSize=8;entryX=0.614;entryY=0.968;entryDx=0;entryDy=0;entryPerimeter=0;" parent="1" target="LViINPk8AAwWqA4m8oOH-623" edge="1">
          <mxGeometry width="50" height="50" relative="1" as="geometry">
            <mxPoint x="1223.9951635742186" y="534.5178771391369" as="sourcePoint" />
            <mxPoint x="1389.5451635742186" y="467.9978771391369" as="targetPoint" />
            <Array as="points">
              <mxPoint x="731.5451635742186" y="534.9978771391369" />
            </Array>
          </mxGeometry>
        </mxCell>
        <mxCell id="LViINPk8AAwWqA4m8oOH-665" value="" style="edgeStyle=elbowEdgeStyle;elbow=vertical;endArrow=classic;html=1;curved=0;rounded=0;endSize=8;startSize=8;exitX=0.041;exitY=0.963;exitDx=0;exitDy=0;exitPerimeter=0;entryX=0.389;entryY=1.02;entryDx=0;entryDy=0;entryPerimeter=0;" parent="1" target="LViINPk8AAwWqA4m8oOH-623" edge="1">
          <mxGeometry width="50" height="50" relative="1" as="geometry">
            <mxPoint x="1156.9951635742186" y="466.9978771391369" as="sourcePoint" />
            <mxPoint x="1286.9951635742186" y="459.9978771391369" as="targetPoint" />
            <Array as="points">
              <mxPoint x="619.5451635742186" y="534.9978771391369" />
            </Array>
          </mxGeometry>
        </mxCell>
        <mxCell id="DYOAXvqbQww3ZDGqncyL-1" value="" style="edgeStyle=elbowEdgeStyle;elbow=vertical;endArrow=classic;html=1;curved=0;rounded=0;endSize=8;startSize=8;entryX=0.587;entryY=1.025;entryDx=0;entryDy=0;entryPerimeter=0;" edge="1" parent="1">
          <mxGeometry width="50" height="50" relative="1" as="geometry">
            <mxPoint x="672" y="-256" as="sourcePoint" />
            <mxPoint x="787" y="-322.9" as="targetPoint" />
            <Array as="points">
              <mxPoint x="74.85516357421852" y="-255.80212286086308" />
            </Array>
          </mxGeometry>
        </mxCell>
        <mxCell id="DYOAXvqbQww3ZDGqncyL-4" value="" style="edgeStyle=elbowEdgeStyle;elbow=vertical;endArrow=classic;html=1;curved=0;rounded=0;endSize=8;startSize=8;entryX=0.91;entryY=1.104;entryDx=0;entryDy=0;entryPerimeter=0;" edge="1" parent="1">
          <mxGeometry width="50" height="50" relative="1" as="geometry">
            <mxPoint x="1048.9951635742186" y="-177.4821228608631" as="sourcePoint" />
            <mxPoint x="1304.69" y="-241.1" as="targetPoint" />
            <Array as="points">
              <mxPoint x="556.5451635742186" y="-177.00212286086307" />
            </Array>
          </mxGeometry>
        </mxCell>
        <mxCell id="DYOAXvqbQww3ZDGqncyL-5" value="" style="edgeStyle=elbowEdgeStyle;elbow=vertical;endArrow=classic;html=1;curved=0;rounded=0;endSize=8;startSize=8;entryX=0.736;entryY=1.052;entryDx=0;entryDy=0;entryPerimeter=0;" edge="1" parent="1">
          <mxGeometry width="50" height="50" relative="1" as="geometry">
            <mxPoint x="943.9951635742186" y="-177.4821228608631" as="sourcePoint" />
            <mxPoint x="1168.69" y="-243.1" as="targetPoint" />
            <Array as="points">
              <mxPoint x="451.5451635742185" y="-177.00212286086307" />
            </Array>
          </mxGeometry>
        </mxCell>
        <mxCell id="DYOAXvqbQww3ZDGqncyL-6" value="" style="edgeStyle=elbowEdgeStyle;elbow=vertical;endArrow=classic;html=1;curved=0;rounded=0;endSize=8;startSize=8;entryX=0.587;entryY=1.025;entryDx=0;entryDy=0;entryPerimeter=0;" edge="1" parent="1">
          <mxGeometry width="50" height="50" relative="1" as="geometry">
            <mxPoint x="694.69" y="-177.1" as="sourcePoint" />
            <mxPoint x="1051.69" y="-244.1" as="targetPoint" />
            <Array as="points">
              <mxPoint x="339.5451635742185" y="-177.00212286086307" />
            </Array>
          </mxGeometry>
        </mxCell>
        <mxCell id="DYOAXvqbQww3ZDGqncyL-7" value="" style="edgeStyle=elbowEdgeStyle;elbow=vertical;endArrow=classic;html=1;curved=0;rounded=0;endSize=8;startSize=8;entryX=0.428;entryY=1.052;entryDx=0;entryDy=0;entryPerimeter=0;" edge="1" parent="1">
          <mxGeometry width="50" height="50" relative="1" as="geometry">
            <mxPoint x="789" y="-241" as="sourcePoint" />
            <mxPoint x="927.69" y="-243.1" as="targetPoint" />
            <Array as="points">
              <mxPoint x="234.54516357421852" y="-177.00212286086307" />
            </Array>
          </mxGeometry>
        </mxCell>
        <mxCell id="DYOAXvqbQww3ZDGqncyL-8" value="" style="edgeStyle=elbowEdgeStyle;elbow=vertical;endArrow=classic;html=1;curved=0;rounded=0;endSize=8;startSize=8;entryX=0.587;entryY=1.025;entryDx=0;entryDy=0;entryPerimeter=0;" edge="1" parent="1">
          <mxGeometry width="50" height="50" relative="1" as="geometry">
            <mxPoint x="779" y="-177.1" as="sourcePoint" />
            <mxPoint x="664" y="-243.99999999999997" as="targetPoint" />
            <Array as="points">
              <mxPoint x="1376.1448364257815" y="-176.90212286086307" />
            </Array>
          </mxGeometry>
        </mxCell>
        <mxCell id="DYOAXvqbQww3ZDGqncyL-18" value="" style="edgeStyle=elbowEdgeStyle;elbow=vertical;endArrow=classic;html=1;curved=0;rounded=0;endSize=8;startSize=8;entryX=0.39;entryY=1.147;entryDx=0;entryDy=0;entryPerimeter=0;" edge="1" parent="1">
          <mxGeometry width="50" height="50" relative="1" as="geometry">
            <mxPoint x="678" y="-12" as="sourcePoint" />
            <mxPoint x="743" y="-77" as="targetPoint" />
            <Array as="points">
              <mxPoint x="51.54516357421852" y="-12.002122860863068" />
            </Array>
          </mxGeometry>
        </mxCell>
        <mxCell id="DYOAXvqbQww3ZDGqncyL-19" value="" style="edgeStyle=elbowEdgeStyle;elbow=vertical;endArrow=classic;html=1;curved=0;rounded=0;endSize=8;startSize=8;entryX=0.56;entryY=1.176;entryDx=0;entryDy=0;entryPerimeter=0;" edge="1" parent="1">
          <mxGeometry width="50" height="50" relative="1" as="geometry">
            <mxPoint x="763" y="167" as="sourcePoint" />
            <mxPoint x="910" y="101" as="targetPoint" />
            <Array as="points">
              <mxPoint x="303.5451635742186" y="164.9978771391369" />
            </Array>
          </mxGeometry>
        </mxCell>
        <mxCell id="DYOAXvqbQww3ZDGqncyL-22" value="" style="edgeStyle=elbowEdgeStyle;elbow=vertical;endArrow=classic;html=1;curved=0;rounded=0;endSize=8;startSize=8;entryX=0.56;entryY=1.176;entryDx=0;entryDy=0;entryPerimeter=0;" edge="1" parent="1">
          <mxGeometry width="50" height="50" relative="1" as="geometry">
            <mxPoint x="676" y="164" as="sourcePoint" />
            <mxPoint x="781" y="100" as="targetPoint" />
            <Array as="points">
              <mxPoint x="174.54516357421858" y="163.9978771391369" />
            </Array>
          </mxGeometry>
        </mxCell>
        <mxCell id="DYOAXvqbQww3ZDGqncyL-23" value="" style="edgeStyle=elbowEdgeStyle;elbow=vertical;endArrow=classic;html=1;curved=0;rounded=0;endSize=8;startSize=8;entryX=0.56;entryY=1.176;entryDx=0;entryDy=0;entryPerimeter=0;" edge="1" parent="1">
          <mxGeometry width="50" height="50" relative="1" as="geometry">
            <mxPoint x="1207" y="339" as="sourcePoint" />
            <mxPoint x="1312" y="278" as="targetPoint" />
            <Array as="points">
              <mxPoint x="705.5451635742186" y="341.9978771391369" />
            </Array>
          </mxGeometry>
        </mxCell>
      </root>
    </mxGraphModel>
  </diagram>
</mxfile>
